<svg xmlns="http://www.w3.org/2000/svg" id="f8240e4d-0621-4581-86ac-be93a7855785" width="1040" height="665.498" data-name="Layer 1" viewBox="0 0 1040 665.498"><title>key_points</title><circle cx="819.019" cy="76.247" r="45.748" fill="#2f2e41"/><path fill="#ffb8b8" d="M880.9603,232.425s.80261,26.486-16.85471,34.512,69.024,7.22345,69.024,7.22345-25.68336-31.3016-18.45992-41.73547Z" transform="translate(-80 -117.25115)"/><path d="M880.9603,232.425s.80261,26.486-16.85471,34.512,69.024,7.22345,69.024,7.22345-25.68336-31.3016-18.45992-41.73547Z" opacity=".1" transform="translate(-80 -117.25115)"/><circle cx="818.618" cy="99.122" r="31.302" fill="#ffb8b8"/><path fill="#2f2e41" d="M894.60459,261.31877l-26.88727-6.01954-15.6508,16.4534-17.65732,2.40782,23.27555,95.51-.8026,24.07815S831.19878,413.01113,832.804,502.1003s-12.84168,265.66229,4.81563,267.26751,54.57715,9.63126,56.985,2.40781,6.42084-292.14826,6.42084-292.14826-.80261,285.72742,11.23647,288.93784,48.95891,9.63126,53.77454-.80261,0-282.517,0-282.517-.8026-70.62925-29.69639-91.497l-3.21042-18.45992,24.88076-101.12824H937.94526l-12.03907-20.86774-24.88076,8.82866Z" transform="translate(-80 -117.25115)"/><path fill="#ffb8b8" d="M829.02756,370.725l-34.3999,58.03226S769.469,454.5709,782.05937,461.7011s25.97612-30.05777,25.97612-30.05777l37.00911-48.72649Z" transform="translate(-80 -117.25115)"/><path fill="#ffb8b8" d="M969.947,371.95857l27.81682,61.45991s22.17074,28.4211,8.87332,34.12509-22.517-32.72937-22.517-32.72937l-31.43249-52.49708Z" transform="translate(-80 -117.25115)"/><path fill="#2f2e41" d="M844.84307,279.77868l-10.43387-5.61823s-18.45991,30.499-15.24949,81.86572c0,0-3.21042,27.28857,3.21042,28.89378s24.88075,4.81563,25.68336,1.60521,10.43387-62.6032,10.43387-62.6032Z" transform="translate(-80 -117.25115)"/><path fill="#2f2e41" d="M948.37913,278.17347l9.63126-4.013a57.80165,57.80165,0,0,1,12.84168,29.69639c2.40782,18.45991,13.64429,77.85269,4.81563,79.4579s-29.69639,4.81563-29.69639,0-7.22344-60.998-7.22344-60.998Z" transform="translate(-80 -117.25115)"/><polygon fill="#2f2e41" points="849.215 70.96 825.999 58.799 793.939 63.774 787.306 93.071 803.818 92.436 808.43 81.672 808.43 92.258 816.049 91.965 820.471 74.83 823.235 93.071 850.321 92.518 849.215 70.96"/><circle cx="821.427" cy="24.078" r="18.46" fill="#2f2e41"/><path fill="#2f2e41" d="M878.15118,135.71106a18.46428,18.46428,0,0,1,15.6508-18.24751,18.45993,18.45993,0,1,0,0,36.495A18.46431,18.46431,0,0,1,878.15118,135.71106Z" transform="translate(-80 -117.25115)"/><ellipse cx="497.944" cy="580.508" fill="#6c63ff" rx="7.876" ry="5.361"/><path fill="#6c63ff" d="M577.944,697.759s37.409,64.9983,36.42453,74.3795" transform="translate(-80 -117.25115)"/><path fill="#3f3d56" d="M602.5552,702.24276v38.02286c-7.83609-10.85778-23.46572-22.038-52.75444-31.11367l52.75444,72.462v.55044s.09965-.05373.28517-.15871l.08985.1234s.07533-.10064.21-.29521C609.2865,778.27364,660.83454,746.17224,602.5552,702.24276Z" transform="translate(-80 -117.25115)"/><rect width="547" height="2" x="493" y="663.458" fill="#3f3d56"/><path fill="#3f3d56" d="M714,781.95962H694.25885V762.21847H714Zm-18.2226-1.51855h16.70405V763.737H695.7774Z" transform="translate(-80 -117.25115)"/><circle cx="1002.31" cy="634.104" r="10.079" fill="#6c63ff"/><path fill="#2f2e41" d="M1082.3101,780.47064a29.116,29.116,0,1,1,29.116-29.116A29.14864,29.14864,0,0,1,1082.3101,780.47064Zm0-55.99227a26.87629,26.87629,0,1,0,26.87629,26.87629A26.90708,26.90708,0,0,0,1082.3101,724.47837Z" transform="translate(-80 -117.25115)"/><rect width="673" height="402" x="36" y="40.147" fill="#6c63ff"/><polygon points="456.48 40.147 36 328.807 36 259.667 355.77 40.147 456.48 40.147" opacity=".1"/><polygon points="658 40.147 658 47.137 82.6 442.147 36 442.147 36 405.007 567.48 40.147 658 40.147" opacity=".1"/><rect width="2" height="71" x="93.376" y="371.147" fill="#3f3d56"/><circle cx="94.5" cy="371.147" r="25" fill="#3f3d56"/><rect width="2" height="132" x="232.376" y="310.147" fill="#3f3d56"/><circle cx="233.5" cy="313.147" r="25" fill="#3f3d56"/><rect width="2" height="243" x="371.376" y="199.147" fill="#3f3d56"/><circle cx="372.5" cy="199.147" r="25" fill="#3f3d56"/><rect width="2" height="170" x="510.376" y="272.147" fill="#3f3d56"/><circle cx="511.5" cy="272.147" r="25" fill="#3f3d56"/><rect width="2" height="315" x="649.376" y="127.147" fill="#3f3d56"/><circle cx="650.5" cy="127.147" r="25" fill="#3f3d56"/><rect width="6" height="2" x="36" y="370.147" fill="#3f3d56"/><path fill="#3f3d56" d="M159.6001,489.3983h-9.40039v-2h9.40039Zm-18.8003,0h-9.3999v-2h9.3999Z" transform="translate(-80 -117.25115)"/><rect width="6" height="2" x="89" y="370.147" fill="#3f3d56"/><rect width="6" height="2" x="36" y="312.147" fill="#3f3d56"/><path fill="#3f3d56" d="M291.8667,431.3983H279.7334v-2h12.1333Zm-24.2666,0H255.4668v-2h12.1333Zm-24.2666,0H231.2002v-2h12.1333Zm-24.26709,0h-12.1333v-2h12.1333Zm-24.26661,0H182.6665v-2h12.1333Zm-24.2666,0H158.3999v-2h12.1333Zm-24.2666,0H134.1333v-2h12.1333Z" transform="translate(-80 -117.25115)"/><rect width="6" height="2" x="224" y="312.147" fill="#3f3d56"/><rect width="6" height="2" x="36" y="271.147" fill="#3f3d56"/><path fill="#3f3d56" d="M556.919,390.3983H544.83789v-2H556.919Zm-24.16211,0H520.67578v-2h12.08106Zm-24.16211,0H496.51367v-2h12.08106Zm-24.1626,0H472.35107v-2h12.08106Zm-24.16211,0H448.189v-2H460.27Zm-24.16211,0H424.02686v-2h12.08105Zm-24.16211,0H399.86475v-2H411.9458Zm-24.16211,0H375.70264v-2h12.08105Zm-24.16211,0H351.54053v-2h12.08105Zm-24.16211,0H327.37842v-2h12.08105Zm-24.16211,0H303.21631v-2h12.08105Zm-24.16211,0H279.0542v-2h12.08105Zm-24.16211,0H254.8916v-2h12.08154Zm-24.16259,0H230.72949v-2h12.08106Zm-24.16211,0H206.56738v-2h12.08106Zm-24.16211,0H182.40527v-2h12.08106Zm-24.16211,0H158.24316v-2h12.08106Zm-24.16211,0H134.08105v-2h12.08106Z" transform="translate(-80 -117.25115)"/><rect width="6" height="2" x="489" y="271.147" fill="#3f3d56"/><rect width="6" height="2" x="36" y="198.147" fill="#3f3d56"/><path fill="#3f3d56" d="M418.63965,317.3983H406.27979v-2h12.35986Zm-24.71973,0H381.55957v-2h12.36035Zm-24.72021,0H356.83984v-2h12.35987Zm-24.71973,0H332.11963v-2H344.48Zm-24.72021,0H307.3999v-2h12.35987Zm-24.71973,0H282.67969v-2H295.04Zm-24.72022,0H257.96v-2h12.35986Zm-24.72021,0H233.23975v-2h12.35986Zm-24.71973,0H208.52v-2h12.35986Zm-24.72021,0H183.7998v-2h12.35987Zm-24.71973,0H159.08008v-2h12.35986Zm-24.72021,0H134.35986v-2h12.35987Z" transform="translate(-80 -117.25115)"/><rect width="6" height="2" x="351" y="198.147" fill="#3f3d56"/><rect width="6" height="2" x="116" y="245.389" fill="#3f3d56" transform="translate(-80.84145 -116.84297) rotate(-0.19583)"/><path fill="#3f3d56" d="M133.82715,247.34019l-.00684-2,11.82373-.03857.00684,2Zm23.647-.07666-.00683-2L169.291,245.225l.00683,2Zm23.647-.07715-.00683-2,11.82373-.03857.00683,2Zm23.64746-.07666-.00683-2,11.82324-.03857.00684,2Zm23.647-.07715-.00684-2,11.82324-.03857.00684,2Zm23.647-.07666-.00684-2,11.82373-.03857.00684,2Zm23.647-.07715-.00683-2,11.82373-.03857.00683,2Zm23.647-.07666-.00684-2,11.82373-.03857.00684,2Zm23.647-.07714-.00684-2,11.82373-.03858.00684,2Zm23.64746-.07666-.00684-2,11.82325-.03858.00683,2Zm23.647-.07715-.00683-2,11.82324-.03858.00683,2Zm23.647-.07666-.00683-2,11.82373-.03858.00683,2Zm23.647-.07715-.00684-2,11.82373-.03858.00684,2Zm23.647-.07666-.00684-2,11.82373-.03858.00684,2Zm23.64746-.07715-.00684-2,11.82325-.03857.00683,2Zm23.647-.07666-.00683-2,11.82324-.03857.00684,2Zm23.647-.07715-.00684-2,11.82324-.03857.00684,2Zm23.647-.07666-.00684-2,11.82373-.03857.00684,2Zm23.64648-.07715-.00586-2,11.82325-.03857.00586,2Zm23.64746-.07666-.00586-2,11.82325-.03857.00586,2Zm23.64649-.07715-.00586-2,11.82422-.03857.00586,2Zm23.64746-.07666-.00586-2,11.82324-.03857.00586,2Zm23.64648-.07714-.00586-2,11.82422-.03858.00586,2Zm23.64746-.07666-.00585-2,11.82324-.03858.00586,2Zm23.64747-.07715-.00586-2,11.82324-.03858.00586,2Z" transform="translate(-80 -117.25115)"/><rect width="6" height="2" x="725" y="243.408" fill="#3f3d56" transform="translate(-80.71291 -115.11729) rotate(-0.16786)"/><rect width="20" height="20" y="118.147" fill="#3f3d56"/><rect width="20" height="20" y="189.147" fill="#3f3d56"/><rect width="20" height="20" y="262.147" fill="#3f3d56"/><rect width="20" height="20" y="303.147" fill="#3f3d56"/><rect width="20" height="20" y="361.147" fill="#3f3d56"/><rect width="52" height="52" x="1019.286" y="414.646" fill="#6c63ff" transform="matrix(-0.25414, 0.96717, -0.96717, -0.25414, 1657.11743, -575.58264)"/><path fill="#3f3d56" d="M1003.167,462.68122a12,12,0,1,1,15.4607,6.99764A12.01375,12.01375,0,0,1,1003.167,462.68122Zm20.58681-7.7578a10,10,0,1,0-5.83137,12.88391A10.01115,10.01115,0,0,0,1023.7538,454.92342Z" transform="translate(-80 -117.25115)"/><ellipse cx="782" cy="655.147" fill="#2f2e41" rx="17" ry="9"/><ellipse cx="860" cy="655.147" fill="#2f2e41" rx="17" ry="9"/><path fill="#fff" d="M630.17236,341.66975a12,12,0,1,1,12-12A12.01375,12.01375,0,0,1,630.17236,341.66975Zm0-22a10,10,0,1,0,10,10A10.01114,10.01114,0,0,0,630.17236,319.66975Z" transform="translate(-80 -117.25115)"/><path fill="#fff" d="M363.17236,522.66975a12,12,0,1,1,12-12A12.01375,12.01375,0,0,1,363.17236,522.66975Zm0-22a10,10,0,1,0,10,10A10.01114,10.01114,0,0,0,363.17236,500.66975Z" transform="translate(-80 -117.25115)"/><path fill="#fff" d="M245.17236,231.66975a12,12,0,1,1,12-12A12.01375,12.01375,0,0,1,245.17236,231.66975Zm0-22a10,10,0,1,0,10,10A10.01114,10.01114,0,0,0,245.17236,209.66975Z" transform="translate(-80 -117.25115)"/></svg>